<?xml version="1.0" encoding="UTF-8"?>
<svg id="Capa_1" data-name="Capa 1" xmlns="http://www.w3.org/2000/svg" viewBox="0 0 816 321.6">
  <defs>
    <style>
      .cls-1 {
        fill: #ffce00;
      }

      .cls-1, .cls-2 {
        stroke-width: 0px;
      }

      .cls-2 {
        fill: #152663;
      }
    </style>
  </defs>
  <rect class="cls-1" width="816" height="321.6"/>
  <g>
    <path class="cls-2" d="M207.87,141.27c-11.63,0-21.05-9.42-21.05-21.05s9.42-21.05,21.05-21.05,21.05,9.42,21.05,21.05-9.42,21.05-21.05,21.05M207.87,80.18c-22.07,0-39.96,17.89-39.96,39.96s17.89,39.95,39.96,39.95,39.96-17.89,39.96-39.95-17.89-39.96-39.96-39.96"/>
    <path class="cls-2" d="M152.94,99.18h-69.21c-1.2,6.15-1.85,12.5-1.89,18.99h67.29c.22-6.67,1.55-13.06,3.81-18.99"/>
    <path class="cls-2" d="M283.67,99.18h-20.87c2.49,6.51,3.86,13.58,3.86,20.97,0,32.47-26.32,58.79-58.79,58.79-26.55,0-48.98-17.6-56.28-41.77h-68.11c8.63,47.52,50.22,83.54,100.22,83.54,56.26,0,101.87-45.61,101.87-101.87,0-6.73-.66-13.29-1.9-19.66"/>
    <path class="cls-2" d="M371.54,125.01c-.76,3.17-2.41,5.68-4.9,7.46-2.5,1.79-5.87,2.71-10.01,2.71-5.74,0-10.29-1.96-13.53-5.82-3.26-3.88-4.91-9.32-4.91-16.17s1.65-12.3,4.91-16.22c3.24-3.89,7.79-5.87,13.53-5.87,4.14,0,7.5.97,10,2.88,2.49,1.91,4.14,4.57,4.91,7.92l.07.29h13.56l-.07-.44c-1.22-6.91-4.35-12.36-9.28-16.19-4.93-3.82-11.32-5.76-19-5.76-6.46,0-12.1,1.43-16.74,4.24-4.64,2.81-8.27,6.78-10.78,11.79-2.5,4.99-3.77,10.83-3.77,17.35s1.27,12.34,3.77,17.31c2.5,4.98,6.13,8.92,10.78,11.7,4.64,2.78,10.28,4.19,16.74,4.19,7.68,0,14.08-1.89,19-5.62,4.93-3.74,8.05-8.98,9.28-15.6l.08-.44h-13.57l-.07.29Z"/>
    <path class="cls-2" d="M401.53,122.37c0-4.36,1.08-7.69,3.22-9.87,2.13-2.19,4.71-3.3,7.68-3.3s5.39,1.11,7.55,3.3c2.16,2.19,3.25,5.51,3.25,9.87s-1.1,7.68-3.25,9.87c-2.16,2.19-4.73,3.3-7.64,3.3s-5.47-1.11-7.59-3.3c-2.13-2.19-3.22-5.51-3.22-9.87M400.38,143.33c3.53,2.03,7.55,3.05,11.96,3.05s8.36-1.02,11.92-3.05c3.56-2.02,6.4-4.87,8.46-8.46,2.05-3.59,3.09-7.79,3.09-12.51s-1.04-8.92-3.09-12.51c-2.06-3.59-4.89-6.43-8.41-8.46-3.52-2.03-7.52-3.05-11.87-3.05s-8.44,1.02-11.96,3.05c-3.53,2.03-6.37,4.87-8.46,8.45-2.08,3.59-3.14,7.8-3.14,12.51s1.04,8.92,3.09,12.51c2.06,3.59,4.89,6.44,8.41,8.46"/>
    <path class="cls-2" d="M523.39,110.9c2.11-1.55,4.57-2.34,7.32-2.34s5.29.86,7.21,2.54c1.83,1.6,2.87,3.77,3.12,6.44h-21.6c.62-2.94,1.95-5.17,3.95-6.64M518.34,143.43c3.56,1.96,7.68,2.96,12.27,2.96,3.67,0,7.01-.68,9.93-2.03,2.92-1.35,5.41-3.24,7.41-5.6,1.99-2.36,3.44-5.02,4.3-7.91l.15-.48h-12.56l-.1.22c-.76,1.63-1.92,2.97-3.46,3.98-1.54,1.01-3.47,1.53-5.75,1.53-3.04,0-5.67-.98-7.8-2.91-2.04-1.85-3.23-4.41-3.53-7.62h34.22l.03-.35c.06-.79.11-1.55.14-2.29.03-.73.04-1.43.04-2.11,0-4.17-.98-8.01-2.91-11.41-1.94-3.4-4.66-6.13-8.1-8.09-3.44-1.96-7.45-2.96-11.92-2.96-4.77,0-8.98,1.04-12.51,3.1-3.53,2.06-6.33,4.97-8.32,8.65-1.99,3.68-3,7.93-3,12.63s1.02,8.81,3.05,12.37c2.03,3.56,4.86,6.36,8.42,8.32"/>
    <path class="cls-2" d="M570.09,122.37c0-4.36,1.08-7.69,3.21-9.87,2.13-2.19,4.72-3.3,7.69-3.3s5.39,1.11,7.55,3.3c2.16,2.19,3.25,5.51,3.25,9.87s-1.1,7.68-3.25,9.87c-2.16,2.19-4.73,3.3-7.64,3.3s-5.47-1.11-7.6-3.3c-2.13-2.19-3.21-5.51-3.21-9.87M568.94,143.33c3.52,2.03,7.55,3.05,11.96,3.05s8.36-1.02,11.91-3.05c3.56-2.02,6.4-4.87,8.46-8.46,2.05-3.59,3.09-7.79,3.09-12.51s-1.04-8.92-3.09-12.51c-2.06-3.59-4.89-6.43-8.41-8.46-3.53-2.03-7.52-3.05-11.87-3.05s-8.43,1.02-11.96,3.05c-3.53,2.03-6.37,4.87-8.46,8.45-2.08,3.59-3.14,7.8-3.14,12.51s1.04,8.92,3.09,12.51c2.06,3.59,4.89,6.44,8.41,8.46"/>
    <path class="cls-2" d="M461.24,101.48c-2.55,1.56-4.64,3.62-6.25,6.14l-1-8.18h-11.07v45.85h12.39v-19.89c0-3.74,1.61-7.31,4.43-9.79,3.09-2.72,7.21-3.92,11.6-3.35l.42.05v-13.48h-.37c-3.87,0-7.29.89-10.15,2.65"/>
    <path class="cls-2" d="M488.57,125.41c0-3.74,1.62-7.3,4.44-9.79,3.09-2.72,7.21-3.91,11.6-3.35l.42.06v-13.49h-.37c-3.87,0-7.29.89-10.15,2.65-2.55,1.56-4.64,3.63-6.25,6.14l-1-8.17h-11.07v45.84h12.39v-19.89Z"/>
    <path class="cls-2" d="M434.23,197.32c0-3.64,1.19-6.69,3.53-9.06,2.34-2.37,5.43-3.57,9.19-3.57s6.85,1.2,9.19,3.57c2.34,2.38,3.53,5.45,3.53,9.15,0,2.35-.55,4.52-1.63,6.45-1.09,1.93-2.6,3.47-4.5,4.59-1.9,1.11-4.12,1.68-6.58,1.68s-4.77-.57-6.68-1.68c-1.9-1.11-3.4-2.65-4.45-4.58-1.06-1.94-1.59-4.14-1.59-6.55M459.91,180.71c-1.54-1.87-3.55-3.47-5.97-4.77-2.71-1.44-5.86-2.18-9.36-2.18-4.3,0-8.23,1.04-11.7,3.1-3.47,2.06-6.25,4.88-8.27,8.41-2.02,3.53-3.05,7.58-3.05,12.05s1.03,8.53,3.05,12.05c2.02,3.53,4.79,6.37,8.22,8.45,3.44,2.09,7.39,3.15,11.74,3.15,3.93,0,7.26-.83,9.88-2.47,2.2-1.37,3.98-2.97,5.29-4.77v4.41c0,4.35-1.22,7.6-3.64,9.67-2.43,2.08-5.37,3.14-8.71,3.14-3.12,0-5.82-.7-8.03-2.08-2.18-1.36-3.54-3.29-4.06-5.72l-.06-.29h-12.27l.05.42c.49,4.3,1.99,7.86,4.46,10.58,2.45,2.7,5.5,4.72,9.06,6.01,3.54,1.28,7.28,1.93,11.13,1.93,4.4,0,8.51-.93,12.21-2.77,3.71-1.84,6.71-4.59,8.92-8.18,2.21-3.59,3.33-8.08,3.33-13.33v-42.65h-11.14l-1.09,5.85Z"/>
    <path class="cls-2" d="M494.59,186.3c2.11-1.55,4.57-2.34,7.33-2.34s5.28.86,7.2,2.54c1.83,1.61,2.87,3.77,3.12,6.44h-21.59c.62-2.94,1.95-5.17,3.95-6.64M513.83,176.72c-3.44-1.96-7.44-2.96-11.91-2.96-4.77,0-8.98,1.04-12.51,3.1-3.53,2.06-6.33,4.97-8.32,8.65-1.99,3.67-3,7.93-3,12.63s1.02,8.81,3.05,12.37c2.03,3.56,4.86,6.36,8.41,8.32,3.56,1.96,7.68,2.96,12.28,2.96,3.67,0,7.01-.68,9.93-2.03s5.41-3.24,7.4-5.6c1.99-2.36,3.44-5.02,4.3-7.91l.14-.48h-12.56l-.1.22c-.75,1.63-1.92,2.96-3.46,3.98-1.54,1.01-3.47,1.53-5.75,1.53-3.04,0-5.66-.98-7.79-2.9-2.04-1.85-3.23-4.41-3.53-7.62h34.22l.02-.35c.06-.79.11-1.55.14-2.29.03-.73.05-1.43.05-2.1,0-4.17-.98-8.01-2.91-11.41-1.93-3.41-4.66-6.13-8.1-8.1"/>
    <path class="cls-2" d="M557.58,173.76c-3.63,0-6.83.81-9.51,2.42-2.35,1.4-4.23,3.25-5.62,5.51l-.81-6.84h-10.98v45.84h12.39v-23.65c0-4,1.02-7.16,3.04-9.39,2.01-2.21,4.62-3.33,7.77-3.33s5.57.99,7.07,2.94c1.52,1.98,2.29,4.9,2.29,8.68v24.74h12.39v-25.83c0-6.85-1.59-12.13-4.73-15.71-3.15-3.58-7.62-5.4-13.28-5.4"/>
    <path class="cls-2" d="M598.76,162.76h-10.98l-1.37,12.09h-7.77v10.48h7.73v19.27c0,5.97,1.48,10.2,4.41,12.56,2.9,2.35,6.8,3.54,11.6,3.54h8.29v-10.66h-6.02c-2.2,0-3.75-.38-4.62-1.13-.85-.74-1.28-2.16-1.28-4.22v-19.36h12.18v-10.48h-12.18v-12.09Z"/>
    <path class="cls-2" d="M622.24,154.48c-2.21,0-4.05.66-5.48,1.96-1.44,1.31-2.17,3.01-2.17,5.05s.73,3.75,2.16,5.09c1.43,1.33,3.27,2.01,5.49,2.01s4.06-.68,5.48-2.01c1.43-1.34,2.16-3.05,2.16-5.09s-.73-3.74-2.17-5.05c-1.43-1.3-3.27-1.96-5.48-1.96"/>
    <rect class="cls-2" x="616.04" y="174.85" width="12.38" height="45.84"/>
    <path class="cls-2" d="M663.65,173.76c-3.63,0-6.83.81-9.51,2.42-2.34,1.4-4.23,3.25-5.61,5.51l-.81-6.84h-10.98v45.84h12.39v-23.65c0-4,1.02-7.16,3.04-9.39,2.01-2.21,4.62-3.33,7.77-3.33s5.58.99,7.07,2.94c1.52,1.99,2.29,4.9,2.29,8.68v24.74h12.39v-25.83c0-6.85-1.59-12.13-4.73-15.71-3.15-3.58-7.62-5.4-13.28-5.4"/>
    <path class="cls-2" d="M721.6,197.77c0,4.36-1.1,7.68-3.25,9.87-2.16,2.19-4.73,3.3-7.64,3.3s-5.47-1.11-7.6-3.3c-2.13-2.19-3.21-5.51-3.21-9.87s1.08-7.69,3.21-9.88c2.13-2.18,4.72-3.29,7.68-3.29s5.39,1.11,7.55,3.3c2.16,2.19,3.25,5.51,3.25,9.87M731.07,185.27c-2.06-3.59-4.88-6.44-8.41-8.46-3.53-2.03-7.52-3.05-11.87-3.05s-8.43,1.02-11.96,3.05c-3.53,2.02-6.37,4.87-8.46,8.45-2.08,3.59-3.14,7.79-3.14,12.51s1.04,8.92,3.1,12.51c2.05,3.59,4.88,6.44,8.41,8.46,3.52,2.02,7.55,3.05,11.96,3.05s8.36-1.02,11.91-3.05c3.56-2.03,6.4-4.87,8.46-8.46s3.1-7.8,3.1-12.51-1.04-8.92-3.1-12.51"/>
    <path class="cls-2" d="M409.31,176.88c-2.55,1.56-4.64,3.62-6.25,6.14l-1-8.17h-11.07v45.84h12.38v-19.89c0-3.74,1.61-7.3,4.43-9.79,3.1-2.72,7.21-3.91,11.6-3.35l.42.05v-13.48h-.38c-3.87,0-7.28.89-10.15,2.65"/>
    <path class="cls-2" d="M345.51,196.12l9.71-24.94,9.71,24.94h-19.43ZM374.5,220.69h13.17l-25.46-64.15-.09-.24h-13.62l-25.36,63.89-.18.5h12.98l5.73-14.73h27.09l5.73,14.73Z"/>
  </g>
</svg>